<svg width="15" height="15" viewBox="0 0 15 15" fill="none" xmlns="http://www.w3.org/2000/svg">
<path d="M7.33333 0C11.3834 0 14.6667 3.28325 14.6667 7.33333C14.6667 11.3834 11.3834 14.6667 7.33333 14.6667C3.28325 14.6667 0 11.3834 0 7.33333C0 3.28325 3.28325 0 7.33333 0ZM5.55846 4.66667H4.52126C4.4859 4.66667 4.45198 4.68072 4.42698 4.70572C4.37491 4.75779 4.37491 4.84221 4.42698 4.89428L6.76636 7.23355L4.22761 9.77239C4.2026 9.79739 4.18855 9.83131 4.18855 9.86667C4.18855 9.9403 4.24825 10 4.32189 10H5.35844C5.3938 10 5.42771 9.98596 5.45272 9.96095L7.47336 7.94056L9.49395 9.96095C9.51895 9.98595 9.55287 10 9.58822 10H10.6254C10.6608 10 10.6947 9.98595 10.7197 9.96095C10.7718 9.90888 10.7718 9.82446 10.7197 9.77239L8.18069 7.23322L10.5197 4.89428C10.5447 4.86928 10.5588 4.83536 10.5588 4.8C10.5588 4.72636 10.4991 4.66667 10.4255 4.66667H9.38792C9.35256 4.66667 9.31864 4.68072 9.29364 4.70572L7.47336 6.52622L5.65274 4.70572C5.62774 4.68071 5.59382 4.66667 5.55846 4.66667Z" fill="#CCCCCC"/>
</svg>
